<?xml version="1.0" encoding="UTF-8" standalone="no"?>
<!-- Created with Inkscape (http://www.inkscape.org/) -->

<svg
   width="1920"
   height="1080"
   viewBox="0 0 1920 1080"
   version="1.1"
   id="svg5"
   inkscape:version="1.1.2 (0a00cf5339, 2022-02-04)"
   sodipodi:docname="bg.svg"
   xmlns:inkscape="http://www.inkscape.org/namespaces/inkscape"
   xmlns:sodipodi="http://sodipodi.sourceforge.net/DTD/sodipodi-0.dtd"
   xmlns:xlink="http://www.w3.org/1999/xlink"
   xmlns="http://www.w3.org/2000/svg"
   xmlns:svg="http://www.w3.org/2000/svg">
  <sodipodi:namedview
     id="namedview7"
     pagecolor="#505050"
     bordercolor="#eeeeee"
     borderopacity="1"
     inkscape:pageshadow="0"
     inkscape:pageopacity="0"
     inkscape:pagecheckerboard="0"
     inkscape:document-units="px"
     showgrid="false"
     inkscape:zoom="0.27629543"
     inkscape:cx="1330.098"
     inkscape:cy="658.71521"
     inkscape:window-width="1920"
     inkscape:window-height="1011"
     inkscape:window-x="0"
     inkscape:window-y="0"
     inkscape:window-maximized="1"
     inkscape:current-layer="layer1" />
  <defs
     id="defs2">
    <linearGradient
       inkscape:collect="always"
       id="linearGradient13616">
      <stop
         style="stop-color:#bfcaea;stop-opacity:1"
         offset="0"
         id="stop13612" />
      <stop
         style="stop-color:#a9b4d5;stop-opacity:1"
         offset="1"
         id="stop13614" />
    </linearGradient>
    <radialGradient
       inkscape:collect="always"
       xlink:href="#linearGradient881"
       id="radialGradient883"
       cx="1226.7985"
       cy="533.91974"
       fx="1226.7985"
       fy="533.91974"
       r="960"
       gradientTransform="matrix(1.4256524,0,0,1.1535646,-457.71504,-81.213174)"
       gradientUnits="userSpaceOnUse" />
    <linearGradient
       inkscape:collect="always"
       id="linearGradient881">
      <stop
         style="stop-color:#ffffff;stop-opacity:1"
         offset="0"
         id="stop877" />
      <stop
         style="stop-color:#96a4ce;stop-opacity:1"
         offset="1"
         id="stop879" />
    </linearGradient>
    <radialGradient
       inkscape:collect="always"
       xlink:href="#linearGradient13616"
       id="radialGradient12970"
       cx="1050.1406"
       cy="920.55927"
       fx="1050.1406"
       fy="920.55927"
       r="869.85938"
       gradientTransform="matrix(2.0134938,-0.0666908,0.04519873,1.364616,-1105.9191,-265.61588)"
       gradientUnits="userSpaceOnUse" />
    <filter
       inkscape:collect="always"
       style="color-interpolation-filters:sRGB"
       id="filter14643"
       x="-0.010161147"
       y="-0.055436083"
       width="1.0203223"
       height="1.1108722">
      <feGaussianBlur
         inkscape:collect="always"
         stdDeviation="7.365641"
         id="feGaussianBlur14645" />
    </filter>
  </defs>
  <g
     inkscape:label="Layer 1"
     inkscape:groupmode="layer"
     id="layer1">
    <rect
       style="display:inline;fill:url(#radialGradient883);fill-opacity:1;stroke-width:1.2;stroke-linecap:square;stroke-linejoin:round"
       id="rect23748-3"
       width="1920"
       height="1080"
       x="0"
       y="0" />
    <path
       id="path9188"
       style="display:inline;fill:url(#radialGradient12970);fill-opacity:1;stroke-width:1.2;stroke-linecap:square;stroke-linejoin:round;filter:url(#filter14643);opacity:0.67094907"
       d="m 1655.0488,761.25977 c -18.2081,-0.19093 -36.7516,-0.19071 -55.6289,0.0156 -21.574,0.23583 -43.5844,0.74061 -66.0332,1.53516 -22.4487,0.79454 -45.3358,1.87885 -68.6601,3.27343 -23.3244,1.39459 -46.2061,3.19397 -68.6153,5.34375 -22.4092,2.14978 -44.3458,4.6493 -65.7793,7.44532 -21.4334,2.79601 -42.3646,5.88937 -62.7617,9.22265 -20.3971,3.33329 -40.2604,6.90638 -59.5605,10.66797 -19.3002,3.7616 -38.0372,7.71007 -56.1797,11.79102 -18.1426,4.08094 -35.6909,8.29461 -52.6153,12.58593 -16.9243,4.29134 -33.2236,8.66193 -48.8691,13.05469 -15.6455,4.39277 -30.6373,8.80813 -44.9434,13.19336 -28.6121,8.77046 -54.48424,17.41734 -77.37496,25.50391 -22.89071,8.08657 -42.80007,15.61354 -59.48437,22.14453 -33.36861,13.06197 -53.83933,22.14048 -59.47266,23.75 -2.81666,0.80476 -5.772,1.24305 -8.78711,1.39258 -3.01511,0.14952 -6.09022,0.009 -9.14648,-0.33789 -6.11253,-0.69449 -12.14906,-2.22238 -17.48242,-3.95313 -5.33337,-1.73075 -9.96391,-3.66285 -13.25977,-5.16211 -3.29586,-1.49925 -5.25781,-2.5664 -5.25781,-2.5664 L 765.98242,1080 h 493.68748 c 1.2081,-0.3508 2.5604,-0.7865 3.7637,-1.1348 34.5662,-10.0036 67.1164,-18.9299 96.0176,-26.1425 14.4506,-3.6064 27.9879,-6.7854 40.4101,-9.4551 12.4222,-2.6697 23.7291,-4.8304 33.7149,-6.4043 9.9858,-1.5739 21.1786,-2.9444 33.4277,-4.1172 12.2491,-1.1728 25.5547,-2.1471 39.7676,-2.9297 14.2129,-0.7826 29.3319,-1.3739 45.209,-1.7773 15.8771,-0.4034 32.5121,-0.6192 49.7539,-0.6543 34.4835,-0.07 71.3962,0.5847 109.541,1.9218 38.1448,1.3372 77.5221,3.3567 116.9316,6.0137 30.8845,2.0822 61.4444,4.8662 91.793,7.7109 v -49.58784 c -20.1214,-3.27065 -40.4154,-6.31887 -61.0352,-8.73438 -23.8588,-2.79494 -47.9828,-5.01255 -72.2187,-6.64257 -24.2359,-1.63002 -48.5832,-2.67162 -72.8848,-3.11524 17.5361,-3.25091 34.6608,-6.11901 51.4141,-8.63867 16.7533,-2.51966 33.1348,-4.69166 49.1875,-6.54492 16.0527,-1.85326 31.7767,-3.38891 47.2109,-4.64063 15.4343,-1.25171 30.5787,-2.21857 45.4766,-2.93359 4.3515,-0.20885 8.5393,-0.24938 12.8496,-0.41602 V 844.29297 c -13.3859,-1.6317 -26.7079,-3.41448 -40.2012,-4.79492 -23.297,-2.38343 -46.7527,-4.39874 -70.3672,-6.07032 -23.6144,-1.67157 -47.3877,-2.99909 -71.3164,-4.00585 -23.9286,-1.00677 -48.0144,-1.69303 -72.2539,-2.08204 -24.2395,-0.389 -48.6325,-0.48053 -73.1797,-0.29882 -24.5471,0.1817 -49.2481,0.63642 -74.0996,1.34179 -24.8515,0.70538 -49.8533,1.6598 -75.0058,2.8418 -25.1526,1.18199 -50.4559,2.59155 -75.9063,4.20312 -25.4503,1.61157 -51.0481,3.42583 -76.7929,5.41993 16.7503,-4.96697 34.097,-9.46159 51.9648,-13.51172 17.8678,-4.05014 36.2563,-7.65501 55.0937,-10.84375 18.8375,-3.18874 38.124,-5.96097 57.7833,-8.34375 19.6591,-2.38279 39.6904,-4.37751 60.0234,-6.00977 20.3329,-1.63226 40.9672,-2.90267 61.8262,-3.83984 20.8589,-0.93717 41.9426,-1.54037 63.1796,-1.83789 21.2371,-0.29752 42.6266,-0.28861 64.0938,-0.002 21.4672,0.2867 43.0129,0.85054 64.5625,1.66602 21.5496,0.81548 43.1039,1.8811 64.5879,3.16992 21.484,1.28882 42.8974,2.80109 64.168,4.50781 7.338,0.5888 14.539,1.32489 21.8398,1.95899 v -28.67969 c -5.7863,-0.73219 -10.99,-1.65651 -16.8809,-2.35156 -29.7403,-3.50899 -60.8131,-6.53367 -93.2207,-8.96094 -16.2038,-1.21363 -32.7419,-2.27681 -49.6132,-3.17773 -16.8714,-0.90093 -34.0758,-1.6392 -51.6153,-2.19922 -17.5395,-0.56002 -35.4129,-0.94188 -53.6211,-1.13281 z m -985.58005,6.30859 c -9.50716,0.0265 -22.26376,0.1562 -37.79687,0.5293 -15.53314,0.37309 -33.84248,0.99044 -54.45508,1.99023 -20.61261,0.9998 -43.52785,2.38247 -68.27344,4.28906 -24.74559,1.90659 -51.32184,4.33621 -79.25391,7.42969 -18.62137,2.06232 -36.48496,4.26848 -53.48828,6.55078 -17.00332,2.2823 -33.14561,4.64008 -48.32812,7.00586 -30.36504,4.73156 -56.88662,9.49381 -78.75196,13.74024 -21.86533,4.24642 -39.0747,7.97724 -50.81836,10.64648 -11.74365,2.66924 -18.02148,4.27734 -18.02148,4.27734 L 193.71484,1080 h 183.08204 l 0.34765,-1.4688 -115.10742,-70.4589 138.16406,-18.92386 37.83594,-135.53516 53.01562,124.94922 138.49024,-13.30664 -105.39844,96.14844 6.97461,18.5957 H 705.43359 L 689.04297,767.68164 c 0,0 -6.89801,-0.14859 -19.57422,-0.11328 z" />
  </g>
</svg>
