<?xml version="1.0" encoding="UTF-8" standalone="no"?>
<!-- Created with Inkscape (http://www.inkscape.org/) -->

<svg
   width="119.99999"
   height="21.723042"
   viewBox="0 0 31.749997 5.7475548"
   version="1.1"
   id="svg56595"
   inkscape:version="1.1.2 (0a00cf5339, 2022-02-04)"
   sodipodi:docname="logo.svg"
   xmlns:inkscape="http://www.inkscape.org/namespaces/inkscape"
   xmlns:sodipodi="http://sodipodi.sourceforge.net/DTD/sodipodi-0.dtd"
   xmlns="http://www.w3.org/2000/svg"
   xmlns:svg="http://www.w3.org/2000/svg">
  <sodipodi:namedview
     id="namedview56597"
     pagecolor="#505050"
     bordercolor="#eeeeee"
     borderopacity="1"
     inkscape:pageshadow="0"
     inkscape:pageopacity="0"
     inkscape:pagecheckerboard="0"
     inkscape:document-units="mm"
     showgrid="false"
     fit-margin-top="0"
     fit-margin-left="0"
     fit-margin-right="0"
     fit-margin-bottom="0"
     inkscape:zoom="3.9191407"
     inkscape:cx="78.716235"
     inkscape:cy="-2.2964218"
     inkscape:window-width="1366"
     inkscape:window-height="731"
     inkscape:window-x="0"
     inkscape:window-y="0"
     inkscape:window-maximized="1"
     inkscape:current-layer="layer1"
     units="px"
     width="220px"
     showguides="true"
     inkscape:guide-bbox="true"
     inkscape:snap-bbox="true"
     inkscape:bbox-paths="true"
     inkscape:bbox-nodes="true"
     inkscape:snap-bbox-edge-midpoints="true"
     inkscape:snap-bbox-midpoints="true" />
  <defs
     id="defs56592" />
  <g
     inkscape:label="Layer 1"
     inkscape:groupmode="layer"
     id="layer1"
     transform="translate(-15.861587,-88.479805)">
    <g
       id="g988"
       transform="matrix(0.24424525,0,0,0.24424525,22.404566,67.410431)"
       style="stroke-width:4.09425">
      <g
         aria-label="SEMCITEC"
         id="g17575"
         style="font-weight:bold;font-size:8.48909px;line-height:1.25;-inkscape-font-specification:'sans-serif Bold';text-align:center;text-anchor:middle;display:inline;fill:#1b41b4;stroke-width:0.242451"
         transform="matrix(4.4679777,0,0,4.4679777,-97.65778,-320.35875)">
        <path
           d="m 17.577647,95.447413 q -0.683935,0 -1.243519,-0.261139 -0.302589,-0.145077 -0.468392,-0.298445 l 0.31088,-0.323315 0.298445,-0.33575 q 0.08705,0.0829 0.240413,0.153368 0.381346,0.182382 0.862173,0.182382 0.770982,0 0.833158,-0.422796 v -0.02072 q 0,-0.120207 -0.08705,-0.227979 -0.203108,-0.227978 -0.746112,-0.227978 -0.953364,0 -1.405176,-0.526423 -0.31088,-0.335751 -0.31088,-0.779272 0,-0.0829 0.01243,-0.165803 0.07047,-0.526423 0.526423,-0.862173 0.464248,-0.323315 1.177198,-0.323315 0.683936,0 1.24352,0.261139 0.302589,0.145077 0.468392,0.30259 l -0.609325,0.646629 q 0,-0.02487 -0.240413,-0.145077 -0.381346,-0.178237 -0.862174,-0.178237 -0.770981,0 -0.820722,0.406216 v 0.05803 q 0,0.107771 0.07461,0.190673 0.203108,0.227978 0.746111,0.227978 0.94922,0 1.417612,0.526423 0.298445,0.348185 0.298445,0.779272 0,0.09534 -0.01243,0.178238 -0.05803,0.526423 -0.526424,0.849738 -0.464247,0.33575 -1.177198,0.33575 z"
           style="font-family:Elkwood;-inkscape-font-specification:'Elkwood Bold';stroke-width:0.242451"
           id="path17559" />
        <path
           d="m 22.862603,91.00805 v 0.887044 h -2.225899 v 0.882898 h 1.865279 v 0.887044 h -1.865279 v 0.899478 h 2.225899 v 0.882899 H 19.749661 V 91.00805 Z"
           style="font-family:Elkwood;-inkscape-font-specification:'Elkwood Bold';stroke-width:0.242451"
           id="path17561" />
        <path
           d="m 25.366222,93.93861 2.047661,-2.93056 v 4.439363 h -0.899479 v -1.687041 l -1.148182,1.687041 -1.160618,-1.687041 v 1.687041 H 23.31856 V 91.00805 Z"
           style="font-family:Elkwood;-inkscape-font-specification:'Elkwood Bold';stroke-width:0.242451"
           id="path17563" />
        <path
           d="m 31.869827,94.564514 q -0.671501,0.882899 -1.774087,0.882899 -0.920205,0 -1.57927,-0.64663 -0.64663,-0.659065 -0.64663,-1.579269 0,-0.920204 0.64663,-1.566834 0.659065,-0.64663 1.57927,-0.64663 1.102586,0 1.774087,0.887044 l -0.634195,0.634194 q -0.397926,-0.634194 -1.139892,-0.634194 -0.551294,0 -0.945075,0.393781 -0.393781,0.381345 -0.393781,0.932639 0,0.551293 0.393781,0.945074 0.393781,0.397926 0.945075,0.397926 0.741966,0 1.139892,-0.64663 z"
           style="font-family:Elkwood;-inkscape-font-specification:'Elkwood Bold';stroke-width:0.242451"
           id="path17565" />
        <path
           d="m 33.212826,91.00805 v 4.439363 H 32.325783 V 91.00805 Z"
           style="font-family:Elkwood;-inkscape-font-specification:'Elkwood Bold';stroke-width:0.242451"
           id="path17567" />
        <path
           d="m 37.216957,91.00805 v 0.882898 h -1.32642 v 3.556465 h -0.895334 v -3.556465 h -1.32642 V 91.00805 Z"
           style="font-family:Elkwood;-inkscape-font-specification:'Elkwood Bold';stroke-width:0.242451"
           id="path17569" />
        <path
           d="m 40.785857,91.00805 v 0.887044 h -2.225899 v 0.882898 h 1.865278 v 0.887044 h -1.865278 v 0.899478 h 2.225899 v 0.882899 H 37.672914 V 91.00805 Z"
           style="font-family:Elkwood;-inkscape-font-specification:'Elkwood Bold';stroke-width:0.242451"
           id="path17571" />
        <path
           d="m 44.955791,94.564514 q -0.6715,0.882899 -1.774087,0.882899 -0.920204,0 -1.579269,-0.64663 -0.64663,-0.659065 -0.64663,-1.579269 0,-0.920204 0.64663,-1.566834 0.659065,-0.64663 1.579269,-0.64663 1.102587,0 1.774087,0.887044 l -0.634195,0.634194 q -0.397926,-0.634194 -1.139892,-0.634194 -0.551294,0 -0.945075,0.393781 -0.393781,0.381345 -0.393781,0.932639 0,0.551293 0.393781,0.945074 0.393781,0.397926 0.945075,0.397926 0.741966,0 1.139892,-0.64663 z"
           style="font-family:Elkwood;-inkscape-font-specification:'Elkwood Bold';stroke-width:0.242451"
           id="path17573" />
      </g>
      <g
         id="g17583"
         transform="matrix(0,-0.35277776,0.88269145,0,-562.02669,-383.0115)"
         style="display:inline;stroke-width:2.58833">
        <rect
           style="fill:#1b41b4;fill-opacity:1;stroke-width:0.792671;stroke-linecap:square;stroke-linejoin:round;paint-order:markers fill stroke"
           id="rect17577"
           width="4.4794922"
           height="55.217285"
           x="-1396.9321"
           y="652.396" />
        <rect
           style="display:inline;fill:#18ba00;fill-opacity:1;stroke-width:0.72369;stroke-linecap:square;stroke-linejoin:round;paint-order:markers fill stroke"
           id="rect17579"
           width="4.4794922"
           height="46.025391"
           x="-1396.9321"
           y="707.61328" />
        <rect
           style="display:inline;fill:#f02e2e;fill-opacity:1;stroke-width:0.72369;stroke-linecap:square;stroke-linejoin:round;paint-order:markers fill stroke"
           id="rect17581"
           width="4.4794922"
           height="46.025391"
           x="-1396.9321"
           y="606.37061" />
      </g>
    </g>
  </g>
</svg>
